<svg width="24" height="25" viewBox="0 0 24 25" fill="none" xmlns="http://www.w3.org/2000/svg">
    <path d="M10.5999 13.2069C10.4124 13.0194 10.3071 12.7651 10.3071 12.4999C10.3071 12.2348 10.4124 11.9804 10.5999 11.7929L15.1849 7.20692C15.3671 7.01832 15.4679 6.76571 15.4656 6.50352C15.4633 6.24132 15.3581 5.99051 15.1727 5.8051C14.9873 5.61969 14.7365 5.51452 14.4743 5.51224C14.2121 5.50997 13.9595 5.61076 13.7709 5.79292L9.18891 10.3789C8.62649 10.9415 8.31055 11.7044 8.31055 12.4999C8.31055 13.2954 8.62649 14.0583 9.18891 14.6209L13.7749 19.2069C13.9635 19.3891 14.2161 19.4899 14.4783 19.4876C14.7405 19.4853 14.9913 19.3801 15.1767 19.1947C15.3621 19.0093 15.4673 18.7585 15.4696 18.4963C15.4719 18.2341 15.3711 17.9815 15.1889 17.7929L10.5999 13.2069Z" fill="#161616"/>
</svg>
