<svg width="24" height="24" viewBox="0 0 24 24" fill="none" xmlns="http://www.w3.org/2000/svg">
    <g id="Iconly/Light/Buy">
        <g id="Buy">
            <path id="Stroke 1" fill-rule="evenodd" clip-rule="evenodd" d="M7.4223 19.8203C7.8443 19.8203 8.1873 20.1633 8.1873 20.5853C8.1873 21.0073 7.8443 21.3493 7.4223 21.3493C7.0003 21.3493 6.6583 21.0073 6.6583 20.5853C6.6583 20.1633 7.0003 19.8203 7.4223 19.8203Z" stroke="#3669C9" stroke-width="1.5" stroke-linecap="round" stroke-linejoin="round"/>
            <path id="Stroke 3" fill-rule="evenodd" clip-rule="evenodd" d="M18.6747 19.8203C19.0967 19.8203 19.4397 20.1633 19.4397 20.5853C19.4397 21.0073 19.0967 21.3493 18.6747 21.3493C18.2527 21.3493 17.9097 21.0073 17.9097 20.5853C17.9097 20.1633 18.2527 19.8203 18.6747 19.8203Z" stroke="#3669C9" stroke-width="1.5" stroke-linecap="round" stroke-linejoin="round"/>
            <path id="Stroke 5" d="M2.7499 3.25L4.8299 3.61L5.7929 15.083C5.8709 16.018 6.6519 16.736 7.5899 16.736H18.5019C19.3979 16.736 20.1579 16.078 20.2869 15.19L21.2359 8.632C21.3529 7.823 20.7259 7.099 19.9089 7.099H5.1639" stroke="#3669C9" stroke-width="1.5" stroke-linecap="round" stroke-linejoin="round"/>
            <path id="Stroke 7" d="M14.1254 10.795H16.8984" stroke="#3669C9" stroke-width="1.5" stroke-linecap="round" stroke-linejoin="round"/>
        </g>
    </g>
</svg>
