<svg width="24" height="24" viewBox="0 0 24 24" fill="none" xmlns="http://www.w3.org/2000/svg">
    <path d="M18.707 8.20697C18.5195 8.0195 18.2651 7.91418 18 7.91418C17.7348 7.91418 17.4805 8.0195 17.293 8.20697L12.707 12.793C12.5168 12.9755 12.2635 13.0774 12 13.0774C11.7364 13.0774 11.4831 12.9755 11.293 12.793L6.70698 8.20697C6.51838 8.02481 6.26578 7.92402 6.00358 7.9263C5.74138 7.92858 5.49057 8.03374 5.30516 8.21915C5.11975 8.40456 5.01458 8.65537 5.01231 8.91757C5.01003 9.17977 5.11082 9.43237 5.29298 9.62097L9.87798 14.207C10.1566 14.4856 10.4873 14.7066 10.8513 14.8574C11.2153 15.0082 11.6055 15.0858 11.9995 15.0858C12.3935 15.0858 12.7836 15.0082 13.1476 14.8574C13.5117 14.7066 13.8424 14.4856 14.121 14.207L18.707 9.62097C18.8945 9.43344 18.9998 9.17913 18.9998 8.91397C18.9998 8.64881 18.8945 8.3945 18.707 8.20697Z" fill="#838589"/>
</svg>
