<svg width="24" height="24" viewBox="0 0 24 24" fill="none" xmlns="http://www.w3.org/2000/svg">
    <path d="M21.9999 13.5C21.9986 13.1909 21.9019 12.8897 21.7229 12.6377C21.5439 12.3856 21.2914 12.195 20.9999 12.092V7.5C20.9986 6.30693 20.5241 5.16311 19.6804 4.31948C18.8368 3.47585 17.693 3.00132 16.4999 3H7.49992C6.30685 3.00132 5.16302 3.47585 4.3194 4.31948C3.47577 5.16311 3.00124 6.30693 2.99992 7.5V12.092C2.67298 12.205 2.39544 12.428 2.21479 12.723C2.03413 13.0179 1.96157 13.3665 2.00953 13.7091C2.05749 14.0516 2.22298 14.3669 2.4777 14.6009C2.73241 14.8349 3.06053 14.9732 3.40592 14.992L5.01892 20.639C5.04907 20.7432 5.11231 20.8348 5.19907 20.8999C5.28584 20.965 5.39143 21.0002 5.49992 21H10.2889C10.3885 20.9999 10.4857 20.97 10.5682 20.9142C10.6507 20.8585 10.7147 20.7793 10.7519 20.687L11.8369 18H12.1519L13.1459 20.674C13.1814 20.7697 13.2454 20.8523 13.3293 20.9106C13.4131 20.9688 13.5128 21.0001 13.6149 21H18.4999C18.6087 21 18.7144 20.9646 18.8012 20.8991C18.888 20.8336 18.9511 20.7416 18.9809 20.637L20.5939 14.99C20.9735 14.9662 21.3299 14.799 21.5909 14.5224C21.8519 14.2458 21.9981 13.8803 21.9999 13.5ZM3.99992 7.5C3.99992 6.57174 4.36867 5.6815 5.02504 5.02513C5.68142 4.36875 6.57166 4 7.49992 4H16.4999C17.4282 4 18.3184 4.36875 18.9748 5.02513C19.6312 5.6815 19.9999 6.57174 19.9999 7.5V12H19.9839C19.9672 10.8851 19.6252 9.79926 18.9999 8.876V7.5C18.9999 6.83696 18.7365 6.20107 18.2677 5.73223C17.7988 5.26339 17.163 5 16.4999 5H7.49992C6.83687 5 6.20099 5.26339 5.73215 5.73223C5.26331 6.20107 4.99992 6.83696 4.99992 7.5V8.876C4.37463 9.79926 4.03263 10.8851 4.01592 12H3.99992V7.5ZM7.49992 8.429C8.82992 8.429 9.91092 10.014 9.98592 12H5.01392C5.08892 10.014 6.16992 8.429 7.49992 8.429ZM10.9839 12C10.8999 9.463 9.37592 7.429 7.49992 7.429C6.96357 7.43787 6.44177 7.60485 5.99992 7.909V7.5C5.99992 7.10218 6.15795 6.72064 6.43926 6.43934C6.72056 6.15804 7.10209 6 7.49992 6H16.4999C16.8977 6 17.2793 6.15804 17.5606 6.43934C17.8419 6.72064 17.9999 7.10218 17.9999 7.5V7.909C17.5581 7.60485 17.0363 7.43787 16.4999 7.429C14.6239 7.429 13.0999 9.463 13.0159 12H10.9839ZM16.4999 8.429C17.8299 8.429 18.9109 10.014 18.9859 12H14.0139C14.0889 10.014 15.1699 8.429 16.4999 8.429ZM18.1229 20H13.9629L12.9689 17.326C12.9334 17.2303 12.8694 17.1477 12.7855 17.0894C12.7017 17.0312 12.602 16.9999 12.4999 17H11.4999C11.4002 16.9999 11.3027 17.0297 11.22 17.0855C11.1373 17.1413 11.0732 17.2205 11.0359 17.313L9.95092 20H5.87692L4.44892 15H19.5489L18.1229 20ZM20.4999 14H3.49992C3.36731 14 3.24013 13.9473 3.14636 13.8536C3.05259 13.7598 2.99992 13.6326 2.99992 13.5C2.99992 13.3674 3.05259 13.2402 3.14636 13.1464C3.24013 13.0527 3.36731 13 3.49992 13H20.4999C20.6325 13 20.7597 13.0527 20.8535 13.1464C20.9472 13.2402 20.9999 13.3674 20.9999 13.5C20.9999 13.6326 20.9472 13.7598 20.8535 13.8536C20.7597 13.9473 20.6325 14 20.4999 14Z" fill="#FFC120"/>
</svg>
