<svg width="20" height="20" viewBox="0 0 20 20" fill="none" xmlns="http://www.w3.org/2000/svg">
    <g clip-path="url(#clip0_16_2537)">
        <path d="M15.8333 0.833344H4.16667C3.062 0.834667 2.00296 1.27408 1.22185 2.05519C0.440735 2.83631 0.00132321 3.89535 0 5.00001L0 15C0.00132321 16.1047 0.440735 17.1637 1.22185 17.9448C2.00296 18.7259 3.062 19.1654 4.16667 19.1667H15.8333C16.938 19.1654 17.997 18.7259 18.7782 17.9448C19.5593 17.1637 19.9987 16.1047 20 15V5.00001C19.9987 3.89535 19.5593 2.83631 18.7782 2.05519C17.997 1.27408 16.938 0.834667 15.8333 0.833344ZM4.16667 2.50001H15.8333C16.4964 2.50001 17.1323 2.7634 17.6011 3.23224C18.0699 3.70108 18.3333 4.33697 18.3333 5.00001V5.83334H1.66667V5.00001C1.66667 4.33697 1.93006 3.70108 2.3989 3.23224C2.86774 2.7634 3.50363 2.50001 4.16667 2.50001ZM15.8333 17.5H4.16667C3.50363 17.5 2.86774 17.2366 2.3989 16.7678C1.93006 16.2989 1.66667 15.663 1.66667 15V7.50001H18.3333V15C18.3333 15.663 18.0699 16.2989 17.6011 16.7678C17.1323 17.2366 16.4964 17.5 15.8333 17.5ZM15.8333 10.8333C15.8333 11.0544 15.7455 11.2663 15.5893 11.4226C15.433 11.5789 15.221 11.6667 15 11.6667H5C4.77899 11.6667 4.56702 11.5789 4.41074 11.4226C4.25446 11.2663 4.16667 11.0544 4.16667 10.8333C4.16667 10.6123 4.25446 10.4004 4.41074 10.2441C4.56702 10.0878 4.77899 10 5 10H15C15.221 10 15.433 10.0878 15.5893 10.2441C15.7455 10.4004 15.8333 10.6123 15.8333 10.8333ZM12.5 14.1667C12.5 14.3877 12.4122 14.5997 12.2559 14.7559C12.0996 14.9122 11.8877 15 11.6667 15H5C4.77899 15 4.56702 14.9122 4.41074 14.7559C4.25446 14.5997 4.16667 14.3877 4.16667 14.1667C4.16667 13.9457 4.25446 13.7337 4.41074 13.5774C4.56702 13.4211 4.77899 13.3333 5 13.3333H11.6667C11.8877 13.3333 12.0996 13.4211 12.2559 13.5774C12.4122 13.7337 12.5 13.9457 12.5 14.1667ZM2.5 4.16668C2.5 4.00186 2.54887 3.84074 2.64044 3.7037C2.73201 3.56666 2.86216 3.45985 3.01443 3.39678C3.1667 3.3337 3.33426 3.3172 3.49591 3.34936C3.65756 3.38151 3.80605 3.46088 3.92259 3.57742C4.03913 3.69396 4.1185 3.84245 4.15065 4.0041C4.18281 4.16575 4.16631 4.33331 4.10323 4.48558C4.04016 4.63785 3.93335 4.768 3.79631 4.85957C3.65927 4.95114 3.49815 5.00001 3.33333 5.00001C3.11232 5.00001 2.90036 4.91221 2.74408 4.75593C2.5878 4.59965 2.5 4.38769 2.5 4.16668ZM5 4.16668C5 4.00186 5.04887 3.84074 5.14044 3.7037C5.23201 3.56666 5.36216 3.45985 5.51443 3.39678C5.6667 3.3337 5.83426 3.3172 5.99591 3.34936C6.15756 3.38151 6.30605 3.46088 6.42259 3.57742C6.53913 3.69396 6.6185 3.84245 6.65065 4.0041C6.68281 4.16575 6.66631 4.33331 6.60323 4.48558C6.54016 4.63785 6.43335 4.768 6.29631 4.85957C6.15927 4.95114 5.99815 5.00001 5.83333 5.00001C5.61232 5.00001 5.40036 4.91221 5.24408 4.75593C5.0878 4.59965 5 4.38769 5 4.16668ZM7.5 4.16668C7.5 4.00186 7.54887 3.84074 7.64044 3.7037C7.73201 3.56666 7.86216 3.45985 8.01443 3.39678C8.1667 3.3337 8.33426 3.3172 8.49591 3.34936C8.65756 3.38151 8.80604 3.46088 8.92259 3.57742C9.03913 3.69396 9.1185 3.84245 9.15065 4.0041C9.18281 4.16575 9.16631 4.33331 9.10323 4.48558C9.04016 4.63785 8.93335 4.768 8.79631 4.85957C8.65927 4.95114 8.49815 5.00001 8.33333 5.00001C8.11232 5.00001 7.90036 4.91221 7.74408 4.75593C7.5878 4.59965 7.5 4.38769 7.5 4.16668Z" fill="#838589"/>
    </g>
    <defs>
        <clipPath id="clip0_16_2537">
            <rect width="20" height="20" fill="white"/>
        </clipPath>
    </defs>
</svg>
