<svg width="24" height="24" viewBox="0 0 24 24" fill="none" xmlns="http://www.w3.org/2000/svg">
    <path d="M21.8922 8.22403C21.6412 7.61903 20.8512 7.25703 19.7782 7.25703C19.5707 7.25854 19.3635 7.27056 19.1572 7.29303C19.7129 6.88866 20.1196 6.31217 20.3142 5.65303C20.3627 5.38768 20.3422 5.11432 20.2546 4.85918C20.1671 4.60405 20.0154 4.37569 19.8142 4.19603C19.6322 3.99421 19.4015 3.84232 19.1442 3.7548C18.8869 3.66729 18.6115 3.64705 18.3442 3.69603C17.6853 3.88891 17.1082 4.29341 16.7022 4.84703C16.7243 4.63975 16.736 4.43148 16.7372 4.22303C16.7372 3.15003 16.3762 2.36003 15.7702 2.11003C15.5443 2.02727 15.2984 2.01598 15.0658 2.0777C14.8333 2.13941 14.6254 2.27114 14.4702 2.45503C14.3052 2.61903 13.8332 3.09703 13.6132 5.62803C13.1206 5.48796 12.5963 5.50646 12.1148 5.68091C11.6333 5.85537 11.2188 6.17692 10.9302 6.60003L2.8792 18.1C2.67693 18.3889 2.58289 18.7398 2.61362 19.0911C2.64434 19.4424 2.79785 19.7717 3.0472 20.021L3.9822 20.956C4.23157 21.2054 4.56082 21.3589 4.91213 21.3896C5.26344 21.4203 5.61433 21.3263 5.9032 21.124L17.4032 13.073C17.8269 12.7841 18.1487 12.3688 18.3226 11.8864C18.4966 11.4039 18.514 10.8789 18.3722 10.386C20.0542 10.24 21.1202 9.95203 21.5442 9.52803C21.7292 9.37278 21.8618 9.1643 21.9241 8.93098C21.9864 8.69765 21.9752 8.4508 21.8922 8.22403ZM18.5362 4.67803C18.6436 4.65971 18.7539 4.67097 18.8554 4.71061C18.9569 4.75025 19.0457 4.81677 19.1122 4.90303C19.1963 4.96824 19.2612 5.05502 19.2999 5.15416C19.3387 5.25329 19.3498 5.36106 19.3322 5.46603C19.1772 6.28103 17.5322 7.30703 16.3522 7.86603L16.1362 7.65003C16.6932 6.47103 17.7182 4.83303 18.5362 4.67803ZM15.1822 3.16103C15.2872 3.06103 15.3662 3.02203 15.3942 3.03303C15.5032 3.07803 15.7422 3.44003 15.7422 4.22203C15.6979 5.09916 15.5495 5.96792 15.3002 6.81003L14.7512 6.26103C14.7012 6.21103 14.6422 6.17603 14.5882 6.13103C14.7232 4.13903 15.0212 3.32203 15.1822 3.16103ZM5.3302 20.3C5.23386 20.3676 5.11675 20.3991 4.9995 20.3888C4.88225 20.3786 4.77237 20.3273 4.6892 20.244L3.7542 19.309C3.67173 19.2257 3.62114 19.1161 3.61127 18.9993C3.6014 18.8825 3.63288 18.766 3.7002 18.67L5.2072 16.518L7.4822 18.8L5.3302 20.3ZM16.8302 12.248L14.9672 13.548L13.2262 11.806C13.1324 11.7121 13.0052 11.6593 12.8726 11.6593C12.7399 11.6592 12.6126 11.7118 12.5187 11.8055C12.4248 11.8993 12.372 12.0265 12.3719 12.1592C12.3718 12.2919 12.4244 12.4191 12.5182 12.513L14.1362 14.131L11.6362 15.878L9.8502 14.092C9.7559 14.0009 9.6296 13.9506 9.4985 13.9517C9.3674 13.9528 9.242 14.0054 9.14929 14.0981C9.05659 14.1908 9.004 14.3162 9.00286 14.4473C9.00173 14.5784 9.05212 14.7047 9.1432 14.799L10.8092 16.466L8.3092 18.213L5.7872 15.686L9.8632 9.86303L11.0302 11.03C11.0763 11.0778 11.1315 11.1159 11.1925 11.1421C11.2535 11.1683 11.3191 11.1821 11.3855 11.1827C11.4519 11.1832 11.5177 11.1706 11.5792 11.1454C11.6406 11.1203 11.6965 11.0832 11.7434 11.0362C11.7903 10.9893 11.8275 10.9335 11.8526 10.872C11.8778 10.8106 11.8904 10.7447 11.8898 10.6783C11.8893 10.6119 11.8755 10.5463 11.8493 10.4853C11.823 10.4243 11.785 10.3692 11.7372 10.323L10.4462 9.03103L11.7462 7.16803C11.8717 6.98814 12.0354 6.83815 12.2255 6.72874C12.4157 6.61933 12.6276 6.55319 12.8462 6.53503C12.8902 6.53503 12.9342 6.52903 12.9772 6.52903C13.3747 6.52911 13.756 6.68701 14.0372 6.96803L17.0302 9.96103C17.0643 9.99866 17.0961 10.0384 17.1252 10.08C17.1534 10.1763 17.2107 10.2616 17.2892 10.324C17.464 10.6452 17.5137 11.0197 17.4287 11.3753C17.3438 11.7309 17.1302 12.0425 16.8292 12.25L16.8302 12.248ZM20.8382 8.81603C20.6752 8.97803 19.8562 9.27603 17.8692 9.41603C17.8242 9.36203 17.7882 9.30303 17.7382 9.25303L17.1892 8.70403C18.0309 8.45211 18.8998 8.30171 19.7772 8.25603C20.5592 8.25603 20.9212 8.49603 20.9672 8.60503C20.9782 8.63103 20.9442 8.71203 20.8392 8.81803L20.8382 8.81603Z" fill="#3A9B7A"/>
</svg>
