<svg width="24" height="24" viewBox="0 0 24 24" fill="none" xmlns="http://www.w3.org/2000/svg">
    <path d="M21.9999 11.75C21.9979 11.3115 21.9715 10.8735 21.9209 10.438C21.9057 10.3164 21.8464 10.2046 21.7542 10.1238C21.6621 10.0431 21.5434 9.99902 21.4209 9.99997H20.9999V7.49997C20.9973 6.9791 20.8321 6.47207 20.5273 6.04967C20.2225 5.62728 19.7934 5.31064 19.2999 5.14397L20.4999 3.26797C20.5565 3.1793 20.5837 3.07504 20.5776 2.97003C20.5715 2.86503 20.5324 2.76462 20.466 2.68309C20.3995 2.60157 20.309 2.54308 20.2074 2.51594C20.1058 2.48881 19.9982 2.49442 19.8999 2.53197L17.6529 3.38097L16.4349 1.25197C16.3875 1.17997 16.3229 1.12088 16.247 1.07999C16.171 1.0391 16.0861 1.0177 15.9999 1.0177C15.9137 1.0177 15.8288 1.0391 15.7529 1.07999C15.677 1.12088 15.6124 1.17997 15.5649 1.25197L14.3509 3.38097L12.0999 2.53197C12.0017 2.49442 11.8941 2.48881 11.7924 2.51594C11.6908 2.54308 11.6003 2.60157 11.5339 2.68309C11.4674 2.76462 11.4284 2.86503 11.4223 2.97003C11.4162 3.07504 11.4433 3.1793 11.4999 3.26797L12.6999 5.14397C12.2199 5.30634 11.8009 5.61116 11.4986 6.0178C11.1963 6.42444 11.0251 6.91357 11.0079 7.41997V7.44597C11.0079 7.46397 11.0029 7.48097 11.0029 7.49997V9.99997H4.07492C3.95238 9.99902 3.83377 10.0431 3.74159 10.1238C3.64942 10.2046 3.59011 10.3164 3.57492 10.438C3.52568 10.8736 3.50064 11.3116 3.49992 11.75C3.5047 12.3036 3.55858 12.8558 3.66092 13.4C3.14584 13.6037 2.7081 13.9646 2.4099 14.4313C2.11171 14.8981 1.96825 15.447 1.99992 16C1.99992 17.583 2.70592 20.673 4.40792 20.991C4.46854 21.0028 4.53015 21.0088 4.59192 21.009C4.88747 20.9873 5.17222 20.8887 5.41792 20.723C5.59096 20.6025 5.7907 20.526 5.99992 20.5C6.20579 20.5329 6.4026 20.6081 6.57792 20.721C6.87251 20.9187 7.22372 21.0146 7.57792 20.994C7.8409 20.9439 8.09129 20.842 8.31448 20.6942C8.53767 20.5463 8.72921 20.3556 8.87792 20.133C10.0908 20.6981 11.4118 20.9939 12.7499 21C12.9499 21 13.1499 20.982 13.3499 20.97C13.3981 20.9874 13.4487 20.9975 13.4999 21H18.4999C19.163 21 19.7988 20.7366 20.2677 20.2677C20.7365 19.7989 20.9999 19.163 20.9999 18.5V15.911C21.6561 14.622 21.9987 13.1963 21.9999 11.75ZM19.9999 7.49997V8.58697L15.9489 5.99997H18.4999C18.8977 5.99997 19.2793 6.158 19.5606 6.43931C19.8419 6.72061 19.9999 7.10214 19.9999 7.49997ZM14.3999 4.46797C14.5114 4.5103 14.6343 4.5114 14.7466 4.47106C14.8588 4.43072 14.9529 4.3516 15.0119 4.24797L15.9999 2.50897L16.9919 4.24797C17.0509 4.3516 17.145 4.43072 17.2573 4.47106C17.3695 4.5114 17.4924 4.5103 17.6039 4.46797L18.8469 3.99997L18.2099 4.99997H13.7899L13.1529 3.99997L14.3999 4.46797ZM13.4999 5.99997H14.0899L19.9999 9.77397V9.99997H16.6379L12.0269 7.23297C12.0894 6.88758 12.271 6.57504 12.5402 6.34975C12.8093 6.12445 13.1489 6.00068 13.4999 5.99997ZM11.9999 8.38297L14.6999 9.99997H11.9999V8.38297ZM7.43092 20.005C7.29496 19.9661 7.16481 19.9093 7.04392 19.836C6.72889 19.6397 6.37027 19.5243 5.99992 19.5C5.61783 19.5184 5.24782 19.6397 4.92892 19.851C4.82437 19.918 4.71138 19.9708 4.59292 20.008C3.68392 19.838 2.99992 17.459 2.99992 16C2.99992 15.211 3.28592 14.2 5.41292 14.033C5.41353 14.3843 5.44701 14.7348 5.51292 15.08C5.53746 15.1909 5.59907 15.2902 5.6876 15.3615C5.77612 15.4327 5.88628 15.4717 5.99992 15.472C6.03558 15.4719 6.07114 15.4679 6.10592 15.46C6.23523 15.4319 6.34815 15.3538 6.41994 15.2426C6.49173 15.1314 6.51653 14.9964 6.48891 14.867C6.44022 14.5883 6.41546 14.3059 6.41492 14.023C8.69991 14.142 8.99992 15.191 8.99992 16C8.99992 17.568 8.39992 19.851 7.43092 20.005ZM9.36491 19.259C9.49465 18.9486 9.60128 18.6291 9.68392 18.303C10.725 18.7969 11.8692 19.0345 13.0208 18.9958C14.1725 18.9572 15.2982 18.6434 16.3037 18.0807C17.3093 17.518 18.1656 16.7227 18.801 15.7614C19.4363 14.8001 19.8324 13.7006 19.9559 12.555C19.9636 12.4895 19.9582 12.4232 19.9402 12.3599C19.9221 12.2965 19.8917 12.2374 19.8508 12.1858C19.8098 12.1342 19.759 12.0913 19.7014 12.0594C19.6437 12.0275 19.5804 12.0073 19.5149 12C19.4494 11.9915 19.3828 11.9963 19.3192 12.0141C19.2556 12.0319 19.1962 12.0623 19.1446 12.1036C19.093 12.1448 19.0502 12.196 19.0188 12.2542C18.9874 12.3123 18.9681 12.3762 18.9619 12.442C18.8526 13.4499 18.4991 14.4159 17.932 15.2562C17.3649 16.0966 16.6014 16.786 15.7077 17.2646C14.8139 17.7432 13.817 17.9965 12.8032 18.0027C11.7894 18.0089 10.7894 17.7676 9.88992 17.3C9.95745 16.8698 9.99421 16.4354 9.99992 16C9.99992 14.706 9.37592 13.178 6.51192 13.016C6.55167 12.8116 6.60853 12.6108 6.68192 12.416C6.72712 12.293 6.72225 12.1572 6.66834 12.0377C6.61442 11.9183 6.51579 11.8248 6.39365 11.7774C6.27151 11.7299 6.13562 11.7323 6.01523 11.7841C5.89485 11.8358 5.79957 11.9327 5.74992 12.054C5.63227 12.3654 5.54683 12.6881 5.49492 13.017C5.20375 13.0318 4.91383 13.0652 4.62692 13.117C4.54663 12.6656 4.50415 12.2084 4.49992 11.75C4.49992 11.529 4.51192 11.255 4.52892 11H20.9709C20.9879 11.255 20.9999 11.529 20.9999 11.75C21.0045 13.129 20.6622 14.4871 20.0044 15.6992C19.3467 16.9113 18.3947 17.9385 17.2359 18.6863C16.0772 19.4342 14.749 19.8785 13.3736 19.9786C11.9982 20.0787 10.6197 19.8312 9.36491 19.259ZM19.9999 18.5C19.9999 18.8978 19.8419 19.2793 19.5606 19.5606C19.2793 19.8419 18.8977 20 18.4999 20H16.9109C18.1111 19.3925 19.165 18.5316 19.9999 17.477V18.5Z" fill="#FE6E4C"/>
    <path d="M16.5 12C16.3674 12 16.2402 12.0527 16.1464 12.1464C16.0527 12.2402 16 12.3674 16 12.5V13.5C16 13.6326 16.0527 13.7598 16.1464 13.8536C16.2402 13.9473 16.3674 14 16.5 14C16.6326 14 16.7598 13.9473 16.8536 13.8536C16.9473 13.7598 17 13.6326 17 13.5V12.5C17 12.3674 16.9473 12.2402 16.8536 12.1464C16.7598 12.0527 16.6326 12 16.5 12Z" fill="#FE6E4C"/>
    <path d="M10.5 12C10.3674 12 10.2402 12.0527 10.1464 12.1464C10.0527 12.2402 10 12.3674 10 12.5V13.5C10 13.6326 10.0527 13.7598 10.1464 13.8536C10.2402 13.9473 10.3674 14 10.5 14C10.6326 14 10.7598 13.9473 10.8536 13.8536C10.9473 13.7598 11 13.6326 11 13.5V12.5C11 12.3674 10.9473 12.2402 10.8536 12.1464C10.7598 12.0527 10.6326 12 10.5 12Z" fill="#FE6E4C"/>
    <path d="M13.5 13C13.3674 13 13.2402 13.0527 13.1464 13.1464C13.0527 13.2402 13 13.3674 13 13.5V14.5C13 14.6326 13.0527 14.7598 13.1464 14.8536C13.2402 14.9473 13.3674 15 13.5 15C13.6326 15 13.7598 14.9473 13.8536 14.8536C13.9473 14.7598 14 14.6326 14 14.5V13.5C14 13.3674 13.9473 13.2402 13.8536 13.1464C13.7598 13.0527 13.6326 13 13.5 13Z" fill="#FE6E4C"/>
</svg>
