<svg width="24" height="25" viewBox="0 0 24 25" fill="none" xmlns="http://www.w3.org/2000/svg">
    <path d="M19.8445 10.9332H19.2001V10.9H12V14.1H16.5213C15.8617 15.9628 14.0892 17.3001 12 17.3001C9.34922 17.3001 7.20001 15.1508 7.20001 12.5C7.20001 9.84922 9.34922 7.70001 12 7.70001C13.2236 7.70001 14.3368 8.16162 15.1844 8.91562L17.4473 6.65281C16.0185 5.3212 14.1072 4.5 12 4.5C7.58202 4.5 4 8.08202 4 12.5C4 16.9181 7.58202 20.5001 12 20.5001C16.4181 20.5001 20.0001 16.9181 20.0001 12.5C20.0001 11.9636 19.9449 11.44 19.8445 10.9332Z" fill="#FFC107"/>
    <path d="M4.92188 8.77642L7.55029 10.704C8.26149 8.94322 9.9839 7.70001 11.9995 7.70001C13.2231 7.70001 14.3363 8.16162 15.1839 8.91562L17.4467 6.65281C16.0179 5.3212 14.1067 4.5 11.9995 4.5C8.92669 4.5 6.26188 6.23481 4.92188 8.77642Z" fill="#FF3D00"/>
    <path d="M12.0001 20.5003C14.0665 20.5003 15.9441 19.7094 17.3637 18.4234L14.8877 16.3282C14.0845 16.9366 13.0861 17.3002 12.0001 17.3002C9.91927 17.3002 8.15247 15.9734 7.48686 14.1218L4.87805 16.1318C6.20206 18.7226 8.89087 20.5003 12.0001 20.5003Z" fill="#4CAF50"/>
    <path d="M19.8444 10.9333H19.2V10.9001H12V14.1002H16.5212C16.2044 14.995 15.6288 15.7666 14.8864 16.3286C14.8868 16.3282 14.8872 16.3282 14.8876 16.3278L17.3636 18.423C17.1884 18.5822 20 16.5002 20 12.5002C20 11.9638 19.9448 11.4401 19.8444 10.9333Z" fill="#1976D2"/>
</svg>