<svg width="16" height="16" viewBox="0 0 16 16" fill="none" xmlns="http://www.w3.org/2000/svg">
    <path fill-rule="evenodd" clip-rule="evenodd" d="M11.0799 0.000127736C11.5847 0.000127736 12.0887 0.071327 12.5679 0.232125C15.5206 1.19212 16.5846 4.43208 15.6958 7.26405C15.1919 8.71124 14.3679 10.032 13.2887 11.1112C11.7439 12.6072 10.0487 13.9352 8.22393 15.0792L8.02393 15.2L7.81593 15.0712C5.98475 13.9352 4.27997 12.6072 2.72078 11.1032C1.6488 10.024 0.824004 8.71124 0.31201 7.26405C-0.591981 4.43208 0.472008 1.19212 3.45678 0.215325C3.68877 0.135326 3.92797 0.0793269 4.16797 0.0481272H4.26397C4.48877 0.0153276 4.71196 0.000127736 4.93596 0.000127736H5.02396C5.52795 0.0153276 6.01595 0.103327 6.48874 0.264125H6.53594C6.56794 0.279325 6.59194 0.296125 6.60794 0.311324C6.78474 0.368124 6.95194 0.432123 7.11194 0.520122L7.41594 0.656121C7.48939 0.695298 7.57184 0.75516 7.6431 0.806896C7.68825 0.839675 7.7289 0.869192 7.75993 0.888118C7.77299 0.895822 7.78626 0.903567 7.79964 0.911377C7.86823 0.951417 7.93968 0.993126 7.99993 1.03932C8.88872 0.360124 9.96791 -0.00787218 11.0799 0.000127736ZM13.2079 5.76006C13.5359 5.75126 13.8159 5.48807 13.8399 5.15127V5.05607C13.8639 3.93528 13.1847 2.92009 12.1519 2.5281C11.8239 2.4153 11.4639 2.5921 11.3439 2.92809C11.2319 3.26409 11.4079 3.63209 11.7439 3.75129C12.2567 3.94328 12.5999 4.44808 12.5999 5.00727V5.03207C12.5847 5.21527 12.6399 5.39207 12.7519 5.52807C12.8639 5.66407 13.0319 5.74326 13.2079 5.76006Z" fill="#838589"/>
</svg>
