<svg width="20" height="20" viewBox="0 0 20 20" fill="none" xmlns="http://www.w3.org/2000/svg">
    <g clip-path="url(#clip0_703_585)">
        <path d="M19.3923 7.84916C18.64 6.61727 17.6911 5.51688 16.5831 4.59166L18.9165 2.25833C19.0683 2.10116 19.1523 1.89066 19.1504 1.67216C19.1485 1.45366 19.0608 1.24465 18.9063 1.09015C18.7518 0.93564 18.5428 0.848 18.3243 0.846101C18.1058 0.844202 17.8953 0.928198 17.7381 1.08L15.2006 3.62083C13.6276 2.68651 11.8293 2.19955 9.9998 2.2125C4.84063 2.2125 1.90063 5.74416 0.607298 7.84916C0.207739 8.49542 -0.00390625 9.2402 -0.00390625 10C-0.00390625 10.7598 0.207739 11.5046 0.607298 12.1508C1.3596 13.3827 2.30854 14.4831 3.41646 15.4083L1.08313 17.7417C1.00354 17.8185 0.940055 17.9105 0.896381 18.0122C0.852707 18.1138 0.829718 18.2232 0.828756 18.3338C0.827795 18.4445 0.84888 18.5542 0.89078 18.6566C0.932681 18.759 0.994559 18.8521 1.0728 18.9303C1.15105 19.0086 1.24409 19.0704 1.3465 19.1123C1.44892 19.1542 1.55865 19.1753 1.6693 19.1744C1.77995 19.1734 1.8893 19.1504 1.99097 19.1067C2.09264 19.0631 2.18459 18.9996 2.26147 18.92L4.8048 16.3767C6.37585 17.3108 8.17202 17.7986 9.9998 17.7875C15.159 17.7875 18.099 14.2558 19.3923 12.1508C19.7919 11.5046 20.0035 10.7598 20.0035 10C20.0035 9.2402 19.7919 8.49542 19.3923 7.84916ZM2.0273 11.2783C1.78991 10.8942 1.66417 10.4516 1.66417 10C1.66417 9.54843 1.78991 9.10579 2.0273 8.72166C3.13896 6.91666 5.65146 3.87916 9.9998 3.87916C11.3834 3.87141 12.7475 4.20486 13.9715 4.85L12.294 6.5275C11.4939 5.99633 10.5347 5.75833 9.57916 5.85387C8.6236 5.94941 7.73052 6.37261 7.05147 7.05166C6.37241 7.73072 5.94921 8.62379 5.85367 9.57936C5.75813 10.5349 5.99613 11.4941 6.5273 12.2942L4.6023 14.2192C3.58155 13.3939 2.7105 12.3991 2.0273 11.2783ZM12.4998 10C12.4998 10.663 12.2364 11.2989 11.7676 11.7678C11.2987 12.2366 10.6628 12.5 9.9998 12.5C9.62856 12.4986 9.26246 12.4131 8.92896 12.25L12.2498 8.92916C12.4129 9.26266 12.4984 9.62876 12.4998 10ZM7.4998 10C7.4998 9.33695 7.76319 8.70107 8.23203 8.23223C8.70087 7.76339 9.33676 7.5 9.9998 7.5C10.371 7.50143 10.7371 7.5869 11.0706 7.75L7.7498 11.0708C7.58671 10.7373 7.50124 10.3712 7.4998 10ZM17.9723 11.2783C16.8606 13.0833 14.3481 16.1208 9.9998 16.1208C8.61624 16.1286 7.2521 15.7951 6.02813 15.15L7.70563 13.4725C8.50569 14.0037 9.46488 14.2417 10.4204 14.1461C11.376 14.0506 12.2691 13.6274 12.9481 12.9483C13.6272 12.2693 14.0504 11.3762 14.1459 10.4206C14.2415 9.46507 14.0035 8.50588 13.4723 7.70583L15.3973 5.78083C16.418 6.60606 17.2891 7.60087 17.9723 8.72166C18.2097 9.10579 18.3354 9.54843 18.3354 10C18.3354 10.4516 18.2097 10.8942 17.9723 11.2783Z" fill="#838589"/>
    </g>
    <defs>
        <clipPath id="clip0_703_585">
            <rect width="20" height="20" fill="white"/>
        </clipPath>
    </defs>
</svg>
