<svg width="20" height="20" viewBox="0 0 20 20" fill="none" xmlns="http://www.w3.org/2000/svg">
    <g clip-path="url(#clip0_703_1729)">
        <path fill-rule="evenodd" clip-rule="evenodd" d="M9.9998 2.21252C15.1598 2.21252 18.0998 5.74419 19.3923 7.84919C19.7919 8.49545 20.0035 9.24023 20.0035 10C20.0035 10.7598 19.7919 11.5046 19.3923 12.1509C18.0998 14.2559 15.1598 17.7875 9.9998 17.7875C4.8398 17.7875 1.8998 14.2559 0.607299 12.1509C0.207739 11.5046 -0.00390625 10.7598 -0.00390625 10C-0.00390625 9.24023 0.207739 8.49545 0.607299 7.84919C1.8998 5.74419 4.8398 2.21252 9.9998 2.21252ZM9.9998 16.1209C14.349 16.1209 16.8615 13.0834 17.9715 11.2784C18.2089 10.8942 18.3346 10.4516 18.3346 10C18.3346 9.54846 18.2089 9.10582 17.9715 8.72169C16.8615 6.91336 14.349 3.87919 9.9998 3.87919C5.65063 3.87919 3.13813 6.91669 2.02813 8.72169C1.79074 9.10582 1.66501 9.54846 1.66501 10C1.66501 10.4516 1.79074 10.8942 2.02813 11.2784C3.13813 13.0834 5.65063 16.1209 9.9998 16.1209ZM7.68488 6.53557C8.37009 6.07773 9.17567 5.83336 9.99976 5.83336C11.1044 5.83469 12.1635 6.2741 12.9446 7.05521C13.7257 7.83633 14.1651 8.89537 14.1664 10C14.1664 10.8241 13.9221 11.6297 13.4642 12.3149C13.0064 13.0001 12.3556 13.5342 11.5943 13.8495C10.8329 14.1649 9.99514 14.2474 9.18688 14.0866C8.37863 13.9259 7.6362 13.529 7.05348 12.9463C6.47076 12.3636 6.07392 11.6212 5.91315 10.8129C5.75238 10.0047 5.83489 9.16688 6.15026 8.40552C6.46562 7.64416 6.99968 6.99341 7.68488 6.53557ZM8.61083 12.0787C9.02195 12.3534 9.5053 12.5 9.99976 12.5C10.6628 12.5 11.2987 12.2366 11.7675 11.7678C12.2364 11.299 12.4998 10.6631 12.4998 10C12.4998 9.50558 12.3531 9.02223 12.0784 8.6111C11.8037 8.19998 11.4133 7.87955 10.9565 7.69033C10.4997 7.50111 9.99698 7.4516 9.51203 7.54807C9.02708 7.64453 8.58162 7.88263 8.23199 8.23226C7.88236 8.58189 7.64426 9.02735 7.54779 9.5123C7.45133 9.99726 7.50084 10.4999 7.69006 10.9567C7.87928 11.4136 8.19971 11.804 8.61083 12.0787Z" fill="#838589"/>
    </g>
    <defs>
        <clipPath id="clip0_703_1729">
            <rect width="20" height="20" fill="white"/>
        </clipPath>
    </defs>
</svg>
