<svg width="17" height="20" viewBox="0 0 17 20" fill="none" xmlns="http://www.w3.org/2000/svg">
    <circle cx="8.57897" cy="5.77803" r="4.77803" stroke="#3669C9" stroke-width="1.5" stroke-linecap="round" stroke-linejoin="round"/>
    <path fill-rule="evenodd" clip-rule="evenodd" d="M1.00002 16.2016C0.998732 15.8657 1.07385 15.5339 1.2197 15.2313C1.67736 14.316 2.96798 13.8308 4.03892 13.6112C4.81128 13.4463 5.59431 13.3362 6.38217 13.2816C7.84084 13.1535 9.30793 13.1535 10.7666 13.2816C11.5544 13.3369 12.3374 13.447 13.1099 13.6112C14.1808 13.8308 15.4714 14.2702 15.9291 15.2313C16.2224 15.8481 16.2224 16.5642 15.9291 17.181C15.4714 18.1421 14.1808 18.5814 13.1099 18.7919C12.3384 18.9636 11.5551 19.0768 10.7666 19.1306C9.57937 19.2313 8.38659 19.2496 7.19681 19.1855C6.92221 19.1855 6.65677 19.1855 6.38217 19.1306C5.59663 19.0775 4.81632 18.9642 4.04807 18.7919C2.96798 18.5814 1.68652 18.1421 1.2197 17.181C1.0746 16.8749 0.999552 16.5403 1.00002 16.2016Z" stroke="#3669C9" stroke-width="1.5" stroke-linecap="round" stroke-linejoin="round"/>
</svg>
