<svg width="14" height="14" viewBox="0 0 14 14" fill="none" xmlns="http://www.w3.org/2000/svg">
    <path fill-rule="evenodd" clip-rule="evenodd" d="M6.99992 2.33333C7.64425 2.33333 8.16658 1.811 8.16658 1.16667C8.16658 0.522334 7.64425 0 6.99992 0C6.35559 0 5.83325 0.522334 5.83325 1.16667C5.83325 1.811 6.35559 2.33333 6.99992 2.33333ZM6.99992 8.16667C7.64425 8.16667 8.16658 7.64433 8.16658 7C8.16658 6.35567 7.64425 5.83333 6.99992 5.83333C6.35559 5.83333 5.83325 6.35567 5.83325 7C5.83325 7.64433 6.35559 8.16667 6.99992 8.16667ZM8.16658 12.8333C8.16658 13.4777 7.64425 14 6.99992 14C6.35559 14 5.83325 13.4777 5.83325 12.8333C5.83325 12.189 6.35559 11.6667 6.99992 11.6667C7.64425 11.6667 8.16658 12.189 8.16658 12.8333Z" fill="#838589"/>
</svg>
