<svg width="24" height="24" viewBox="0 0 24 24" fill="none" xmlns="http://www.w3.org/2000/svg">
    <rect x="8" y="-6.10352e-05" width="16" height="16" rx="8" fill="#EFF5FB"/>
    <path fill-rule="evenodd" clip-rule="evenodd" d="M7.48626 21.5H15.8341C18.9004 21.5 21.2528 20.3925 20.5847 15.9348L19.8066 9.89363C19.3947 7.66937 17.976 6.81812 16.7311 6.81812H6.55262C5.28946 6.81812 3.95308 7.73345 3.4771 9.89363L2.69907 15.9348C2.13157 19.8891 4.4199 21.5 7.48626 21.5Z" stroke="#3669C9" stroke-width="2" stroke-linecap="round" stroke-linejoin="round"/>
    <path d="M7.34896 6.59842C7.34896 4.21235 9.28325 2.27805 11.6693 2.27805V2.27805C12.8183 2.27319 13.9219 2.72622 14.7361 3.53697C15.5503 4.34772 16.008 5.44941 16.008 6.59842V6.59842" stroke="#3669C9" stroke-width="2" stroke-linecap="round" stroke-linejoin="round"/>
    <path d="M8.70365 11.1018H8.74942" stroke="#3669C9" stroke-width="2" stroke-linecap="round" stroke-linejoin="round"/>
    <path d="M14.5343 11.1018H14.5801" stroke="#3669C9" stroke-width="2" stroke-linecap="round" stroke-linejoin="round"/>
</svg>
