<svg width="14" height="14" viewBox="0 0 14 14" fill="none" xmlns="http://www.w3.org/2000/svg">
    <g clip-path="url(#clip0_16_4006)">
        <path fill-rule="evenodd" clip-rule="evenodd" d="M7 0C5.61553 0 4.26216 0.410543 3.11101 1.17971C1.95987 1.94888 1.06266 3.04213 0.532846 4.32122C0.003033 5.6003 -0.13559 7.00776 0.134506 8.36563C0.404603 9.7235 1.07129 10.9708 2.05026 11.9497C3.02922 12.9287 4.2765 13.5954 5.63437 13.8655C6.99224 14.1356 8.3997 13.997 9.67879 13.4672C10.9579 12.9373 12.0511 12.0401 12.8203 10.889C13.5895 9.73785 14 8.38447 14 7C13.998 5.1441 13.2599 3.36479 11.9475 2.05247C10.6352 0.74015 8.8559 0.0020073 7 0ZM7 12.8333C5.84628 12.8333 4.71846 12.4912 3.75918 11.8502C2.79989 11.2093 2.05222 10.2982 1.61071 9.23232C1.16919 8.16642 1.05368 6.99353 1.27876 5.86197C1.50384 4.73042 2.05941 3.69102 2.87521 2.87521C3.69102 2.0594 4.73042 1.50383 5.86198 1.27875C6.99353 1.05367 8.16642 1.16919 9.23232 1.6107C10.2982 2.05221 11.2093 2.79989 11.8502 3.75917C12.4912 4.71846 12.8333 5.84628 12.8333 7C12.8316 8.54657 12.2165 10.0293 11.1229 11.1229C10.0293 12.2165 8.54658 12.8316 7 12.8333ZM7 5.83333H6.41666C6.26195 5.83333 6.11358 5.89479 6.00419 6.00419C5.89479 6.11358 5.83333 6.26196 5.83333 6.41667C5.83333 6.57138 5.89479 6.71975 6.00419 6.82915C6.11358 6.93854 6.26195 7 6.41666 7H7V10.5C7 10.6547 7.06146 10.8031 7.17085 10.9125C7.28025 11.0219 7.42862 11.0833 7.58333 11.0833C7.73804 11.0833 7.88641 11.0219 7.99581 10.9125C8.10521 10.8031 8.16666 10.6547 8.16666 10.5V7C8.16666 6.69058 8.04375 6.39384 7.82495 6.17504C7.60616 5.95625 7.30942 5.83333 7 5.83333ZM7.875 3.79167C7.875 4.27492 7.48325 4.66667 7 4.66667C6.51675 4.66667 6.125 4.27492 6.125 3.79167C6.125 3.30842 6.51675 2.91667 7 2.91667C7.48325 2.91667 7.875 3.30842 7.875 3.79167Z" fill="#838589"/>
    </g>
    <defs>
        <clipPath id="clip0_16_4006">
            <rect width="14" height="14" fill="white"/>
        </clipPath>
    </defs>
</svg>
