<svg width="20" height="20" viewBox="0 0 20 20" fill="none" xmlns="http://www.w3.org/2000/svg">
    <g clip-path="url(#clip0_16_3484)">
        <path d="M0 17.3213V11.488C0.00220571 9.49953 0.79309 7.59316 2.19914 6.18711C3.60518 4.78107 5.51155 3.99018 7.5 3.98798H11.525V2.66631C11.5251 2.33673 11.6229 2.01456 11.806 1.74055C11.9891 1.46653 12.2494 1.25296 12.5539 1.12685C12.8584 1.00073 13.1935 0.967727 13.5167 1.03201C13.84 1.09629 14.1369 1.25496 14.37 1.48798L19.27 6.38714C19.7387 6.85596 20.002 7.49173 20.002 8.15464C20.002 8.81756 19.7387 9.45333 19.27 9.92214L14.37 14.8213C14.1369 15.0543 13.84 15.213 13.5167 15.2773C13.1935 15.3416 12.8584 15.3086 12.5539 15.1824C12.2494 15.0563 11.9891 14.8428 11.806 14.5687C11.6229 14.2947 11.5251 13.9726 11.525 13.643V12.3213H6.66667C5.34099 12.3226 4.06999 12.8498 3.13259 13.7872C2.1952 14.7246 1.66799 15.9956 1.66667 17.3213C1.66667 17.5423 1.57887 17.7543 1.42259 17.9106C1.26631 18.0668 1.05435 18.1546 0.833333 18.1546C0.61232 18.1546 0.400358 18.0668 0.244078 17.9106C0.0877974 17.7543 0 17.5423 0 17.3213ZM13.1917 4.82131C13.1917 5.04233 13.1039 5.25429 12.9476 5.41057C12.7913 5.56685 12.5793 5.65464 12.3583 5.65464H7.5C5.95344 5.65641 4.47074 6.27156 3.37716 7.36514C2.28358 8.45872 1.66843 9.94142 1.66667 11.488V12.9163C2.29131 12.2054 3.06041 11.636 3.92263 11.246C4.78484 10.856 5.72034 10.6544 6.66667 10.6546H12.3583C12.5793 10.6546 12.7913 10.7424 12.9476 10.8987C13.1039 11.055 13.1917 11.267 13.1917 11.488V13.643L18.0908 8.74381C18.2471 8.58754 18.3348 8.37562 18.3348 8.15464C18.3348 7.93367 18.2471 7.72175 18.0908 7.56548L13.1917 2.66631V4.82131Z" fill="#0C1A30"/>
    </g>
    <defs>
        <clipPath id="clip0_16_3484">
            <rect width="20" height="20" fill="white"/>
        </clipPath>
    </defs>
</svg>
