<svg width="20" height="20" viewBox="0 0 20 20" fill="none" xmlns="http://www.w3.org/2000/svg">
    <path fill-rule="evenodd" clip-rule="evenodd" d="M17.5 3.33333H14.9167C14.7233 2.39284 14.2115 1.54779 13.4677 0.940598C12.7239 0.333408 11.7935 0.0012121 10.8333 0H9.16667C8.2065 0.0012121 7.2761 0.333408 6.5323 0.940598C5.78849 1.54779 5.27675 2.39284 5.08334 3.33333H2.50001C2.27899 3.33333 2.06703 3.42113 1.91075 3.57741C1.75447 3.73369 1.66667 3.94565 1.66667 4.16667C1.66667 4.38768 1.75447 4.59964 1.91075 4.75592C2.06703 4.9122 2.27899 5 2.50001 5H3.33334V15.8333C3.33466 16.938 3.77407 17.997 4.55519 18.7782C5.3363 19.5593 6.39534 19.9987 7.50001 20H12.5C13.6047 19.9987 14.6637 19.5593 15.4448 18.7782C16.2259 17.997 16.6653 16.938 16.6667 15.8333V5H17.5C17.721 5 17.933 4.9122 18.0893 4.75592C18.2455 4.59964 18.3333 4.38768 18.3333 4.16667C18.3333 3.94565 18.2455 3.73369 18.0893 3.57741C17.933 3.42113 17.721 3.33333 17.5 3.33333ZM9.16667 1.66667H10.8333C11.3502 1.6673 11.8543 1.82781 12.2764 2.1262C12.6984 2.42459 13.0179 2.84624 13.1908 3.33333H6.80917C6.98216 2.84624 7.30159 2.42459 7.72366 2.1262C8.14573 1.82781 8.64978 1.6673 9.16667 1.66667ZM15 15.8333C15 16.4964 14.7366 17.1323 14.2678 17.6011C13.7989 18.0699 13.163 18.3333 12.5 18.3333H7.50001C6.83696 18.3333 6.20108 18.0699 5.73224 17.6011C5.2634 17.1323 5.00001 16.4964 5.00001 15.8333V5H15V15.8333ZM8.33334 15C8.55435 15 8.76631 14.9122 8.92259 14.7559C9.07887 14.5996 9.16667 14.3877 9.16667 14.1667V9.16667C9.16667 8.94565 9.07887 8.73369 8.92259 8.57741C8.76631 8.42113 8.55435 8.33333 8.33334 8.33333C8.11232 8.33333 7.90036 8.42113 7.74408 8.57741C7.5878 8.73369 7.5 8.94565 7.5 9.16667V14.1667C7.5 14.3877 7.5878 14.5996 7.74408 14.7559C7.90036 14.9122 8.11232 15 8.33334 15ZM12.2559 14.7559C12.0996 14.9122 11.8877 15 11.6667 15C11.4457 15 11.2337 14.9122 11.0774 14.7559C10.9211 14.5996 10.8333 14.3877 10.8333 14.1667V9.16667C10.8333 8.94565 10.9211 8.73369 11.0774 8.57741C11.2337 8.42113 11.4457 8.33333 11.6667 8.33333C11.8877 8.33333 12.0996 8.42113 12.2559 8.57741C12.4122 8.73369 12.5 8.94565 12.5 9.16667V14.1667C12.5 14.3877 12.4122 14.5996 12.2559 14.7559Z" fill="#838589"/>
</svg>
